<svg xmlns="http://www.w3.org/2000/svg" viewBox="0 0 1200 740" font-family="system-ui, -apple-system, 'Segoe UI', Helvetica, sans-serif">
  <defs>
    <linearGradient id="hubGrad" x1="0" y1="0" x2="1" y2="1">
      <stop offset="0%" stop-color="#6B8DAD"/>
      <stop offset="100%" stop-color="#4A6A8B"/>
    </linearGradient>
    <linearGradient id="arc1" gradientUnits="userSpaceOnUse" x1="0" y1="-110" x2="110" y2="0">
      <stop offset="0%" stop-color="rgba(107,141,173,0.45)"/>
      <stop offset="100%" stop-color="rgba(107,141,173,0.30)"/>
    </linearGradient>
    <linearGradient id="arc2" gradientUnits="userSpaceOnUse" x1="110" y1="0" x2="0" y2="110">
      <stop offset="0%" stop-color="rgba(107,141,173,0.30)"/>
      <stop offset="100%" stop-color="rgba(107,141,173,0.18)"/>
    </linearGradient>
    <linearGradient id="arc3" gradientUnits="userSpaceOnUse" x1="0" y1="110" x2="-110" y2="0">
      <stop offset="0%" stop-color="rgba(107,141,173,0.18)"/>
      <stop offset="100%" stop-color="rgba(107,141,173,0.08)"/>
    </linearGradient>
    <linearGradient id="arc4" gradientUnits="userSpaceOnUse" x1="-110" y1="0" x2="0" y2="-110">
      <stop offset="0%" stop-color="rgba(107,141,173,0.08)"/>
      <stop offset="100%" stop-color="rgba(107,141,173,0.45)"/>
    </linearGradient>
  </defs>

  <!-- Background -->
  <rect width="1200" height="740" fill="#0C0C0C"/>
  <pattern id="dots" width="32" height="32" patternUnits="userSpaceOnUse">
    <circle cx="16" cy="16" r="0.4" fill="rgba(255,255,255,0.04)"/>
  </pattern>
  <rect width="1200" height="740" fill="url(#dots)"/>

  <!-- Title -->
  <text x="80" y="52" fill="rgba(138,172,198,0.5)" font-size="10" letter-spacing="4" font-weight="400">PLATFORM ARCHITECTURE</text>
  <line x1="80" y1="62" x2="260" y2="62" stroke="rgba(90,122,155,0.15)" stroke-width="0.5"/>


  <!-- ══════════════════════════════════════════════════════════ -->
  <!--  LAYER 01 · DATA FOUNDATION (top)                        -->
  <!-- ══════════════════════════════════════════════════════════ -->

  <g transform="translate(80, 96)">
    <text x="0" y="0" fill="rgba(90,122,155,0.2)" font-size="52" font-weight="700" letter-spacing="-2">01</text>
    <text x="72" y="-16" fill="#5A7A9B" font-size="9" font-weight="600" letter-spacing="3">DATA FOUNDATION</text>
    <line x1="72" y1="-8" x2="195" y2="-8" stroke="rgba(90,122,155,0.12)" stroke-width="0.5"/>
  </g>

  <g transform="translate(80, 120)">
    <g>
      <rect width="148" height="96" rx="4" fill="rgba(90,122,155,0.03)"/>
      <line x1="0" y1="0" x2="0" y2="96" stroke="#5A7A9B" stroke-width="2" stroke-linecap="round"/>
      <text x="16" y="28" fill="rgba(240,237,230,0.92)" font-size="13" font-weight="500">Redshift DWH</text>
      <text x="16" y="56" fill="rgba(186,182,174,0.45)" font-size="10.5">Single source of truth</text>
    </g>
    <g transform="translate(164, 0)">
      <rect width="148" height="96" rx="4" fill="rgba(90,122,155,0.03)"/>
      <line x1="0" y1="0" x2="0" y2="96" stroke="#5A7A9B" stroke-width="2" stroke-linecap="round"/>
      <text x="16" y="28" fill="rgba(240,237,230,0.92)" font-size="13" font-weight="500">NetSuite APIs</text>
      <text x="16" y="56" fill="rgba(186,182,174,0.45)" font-size="10.5">5 countries, real-time</text>
    </g>
    <g transform="translate(328, 0)">
      <rect width="148" height="96" rx="4" fill="rgba(90,122,155,0.03)"/>
      <line x1="0" y1="0" x2="0" y2="96" stroke="#5A7A9B" stroke-width="2" stroke-linecap="round"/>
      <text x="16" y="28" fill="rgba(240,237,230,0.92)" font-size="13" font-weight="500">Legacy SFTP</text>
      <text x="16" y="56" fill="rgba(186,182,174,0.45)" font-size="10.5">5 countries, batch</text>
    </g>
    <g transform="translate(492, 0)">
      <rect width="148" height="96" rx="4" fill="rgba(90,122,155,0.03)"/>
      <line x1="0" y1="0" x2="0" y2="96" stroke="#5A7A9B" stroke-width="2" stroke-linecap="round"/>
      <text x="16" y="28" fill="rgba(240,237,230,0.92)" font-size="13" font-weight="500">Validation Rules</text>
      <text x="16" y="56" fill="rgba(186,182,174,0.45)" font-size="10.5">Data quality &gt;95%</text>
    </g>
  </g>

  <!-- Connector 01 → 02 -->
  <g transform="translate(390, 228)">
    <line x1="0" y1="0" x2="0" y2="40" stroke="rgba(255,255,255,0.06)" stroke-width="0.5"/>
    <text x="10" y="24" fill="rgba(186,182,174,0.2)" font-size="9" font-style="italic">feeds</text>
  </g>


  <!-- ══════════════════════════════════════════════════════════ -->
  <!--  LAYER 02 · AUTOMATION (middle)                          -->
  <!-- ══════════════════════════════════════════════════════════ -->

  <g transform="translate(80, 320)">
    <text x="0" y="0" fill="rgba(150,145,138,0.2)" font-size="52" font-weight="700" letter-spacing="-2">02</text>
    <text x="72" y="-16" fill="#96918A" font-size="9" font-weight="600" letter-spacing="3">AUTOMATION</text>
    <line x1="72" y1="-8" x2="170" y2="-8" stroke="rgba(150,145,138,0.12)" stroke-width="0.5"/>
    <text x="72" y="0" fill="rgba(150,145,138,0.3)" font-size="10" font-style="italic">HighRadius · 80% out-of-the-box</text>
  </g>

  <g transform="translate(80, 344)">
    <g>
      <rect width="148" height="96" rx="4" fill="rgba(150,145,138,0.03)"/>
      <line x1="0" y1="0" x2="0" y2="96" stroke="#96918A" stroke-width="2" stroke-linecap="round"/>
      <text x="16" y="28" fill="rgba(240,237,230,0.92)" font-size="13" font-weight="500">Cash</text>
      <text x="16" y="44" fill="rgba(240,237,230,0.92)" font-size="13" font-weight="500">Forecasting</text>
      <text x="16" y="68" fill="rgba(186,182,174,0.45)" font-size="10.5">ML-powered</text>
      <text x="16" y="82" fill="rgba(186,182,174,0.45)" font-size="10.5">85%+ accuracy</text>
    </g>
    <g transform="translate(164, 0)">
      <rect width="148" height="96" rx="4" fill="rgba(150,145,138,0.03)"/>
      <line x1="0" y1="0" x2="0" y2="96" stroke="#96918A" stroke-width="2" stroke-linecap="round"/>
      <text x="16" y="28" fill="rgba(240,237,230,0.92)" font-size="13" font-weight="500">Collections</text>
      <text x="16" y="56" fill="rgba(186,182,174,0.45)" font-size="10.5">Automated dunning</text>
      <text x="16" y="70" fill="rgba(186,182,174,0.45)" font-size="10.5">workflows</text>
    </g>
    <g transform="translate(328, 0)">
      <rect width="148" height="96" rx="4" fill="rgba(150,145,138,0.03)"/>
      <line x1="0" y1="0" x2="0" y2="96" stroke="#96918A" stroke-width="2" stroke-linecap="round"/>
      <text x="16" y="28" fill="rgba(240,237,230,0.92)" font-size="13" font-weight="500">Credit Risk</text>
      <text x="16" y="56" fill="rgba(186,182,174,0.45)" font-size="10.5">Scoring &amp; limit</text>
      <text x="16" y="70" fill="rgba(186,182,174,0.45)" font-size="10.5">management</text>
    </g>
    <g transform="translate(492, 0)">
      <rect width="148" height="96" rx="4" fill="rgba(150,145,138,0.03)"/>
      <line x1="0" y1="0" x2="0" y2="96" stroke="#96918A" stroke-width="2" stroke-linecap="round"/>
      <text x="16" y="28" fill="rgba(240,237,230,0.92)" font-size="13" font-weight="500">Cash</text>
      <text x="16" y="44" fill="rgba(240,237,230,0.92)" font-size="13" font-weight="500">Application</text>
      <text x="16" y="68" fill="rgba(186,182,174,0.45)" font-size="10.5">Auto-reconciliation</text>
    </g>
  </g>

  <!-- Connector 02 → 03 -->
  <g transform="translate(390, 452)">
    <line x1="0" y1="0" x2="0" y2="40" stroke="rgba(255,255,255,0.06)" stroke-width="0.5"/>
    <text x="10" y="24" fill="rgba(186,182,174,0.2)" font-size="9" font-style="italic">enriches</text>
  </g>


  <!-- ══════════════════════════════════════════════════════════ -->
  <!--  LAYER 03 · AI DIFFERENTIATION (bottom)                  -->
  <!-- ══════════════════════════════════════════════════════════ -->

  <g transform="translate(80, 544)">
    <text x="0" y="0" fill="rgba(90,138,106,0.25)" font-size="52" font-weight="700" letter-spacing="-2">03</text>
    <text x="72" y="-16" fill="#5A8A6A" font-size="9" font-weight="600" letter-spacing="3">AI DIFFERENTIATION</text>
    <line x1="72" y1="-8" x2="220" y2="-8" stroke="rgba(90,138,106,0.15)" stroke-width="0.5"/>
    <text x="72" y="0" fill="rgba(90,138,106,0.4)" font-size="10" font-style="italic">20% proprietary advantage</text>
  </g>

  <g transform="translate(80, 568)">
    <g>
      <rect width="148" height="96" rx="4" fill="rgba(90,138,106,0.04)"/>
      <line x1="0" y1="0" x2="0" y2="96" stroke="#5A8A6A" stroke-width="2" stroke-linecap="round"/>
      <text x="16" y="28" fill="rgba(240,237,230,0.92)" font-size="13" font-weight="500">Payment</text>
      <text x="16" y="44" fill="rgba(240,237,230,0.92)" font-size="13" font-weight="500">Prediction</text>
      <text x="16" y="68" fill="rgba(186,182,174,0.45)" font-size="10.5">Staffing-native</text>
      <text x="16" y="82" fill="rgba(186,182,174,0.45)" font-size="10.5">scoring model</text>
    </g>
    <g transform="translate(164, 0)">
      <rect width="148" height="96" rx="4" fill="rgba(90,138,106,0.04)"/>
      <line x1="0" y1="0" x2="0" y2="96" stroke="#5A8A6A" stroke-width="2" stroke-linecap="round"/>
      <text x="16" y="28" fill="rgba(240,237,230,0.92)" font-size="13" font-weight="500">Dunning</text>
      <text x="16" y="44" fill="rgba(240,237,230,0.92)" font-size="13" font-weight="500">Optimiser</text>
      <text x="16" y="68" fill="rgba(186,182,174,0.45)" font-size="10.5">Cross-market</text>
      <text x="16" y="82" fill="rgba(186,182,174,0.45)" font-size="10.5">ML agent</text>
    </g>
    <g transform="translate(328, 0)">
      <rect width="148" height="96" rx="4" fill="rgba(90,138,106,0.04)"/>
      <line x1="0" y1="0" x2="0" y2="96" stroke="#5A8A6A" stroke-width="2" stroke-linecap="round"/>
      <text x="16" y="28" fill="rgba(240,237,230,0.92)" font-size="13" font-weight="500">Anomaly</text>
      <text x="16" y="44" fill="rgba(240,237,230,0.92)" font-size="13" font-weight="500">Detection</text>
      <text x="16" y="68" fill="rgba(186,182,174,0.45)" font-size="10.5">Forecast deviation</text>
      <text x="16" y="82" fill="rgba(186,182,174,0.45)" font-size="10.5">real-time alerts</text>
    </g>
    <g transform="translate(492, 0)">
      <rect width="148" height="96" rx="4" fill="rgba(90,138,106,0.04)"/>
      <line x1="0" y1="0" x2="0" y2="96" stroke="#5A8A6A" stroke-width="2" stroke-linecap="round"/>
      <text x="16" y="28" fill="rgba(240,237,230,0.92)" font-size="13" font-weight="500">Portfolio</text>
      <text x="16" y="44" fill="rgba(240,237,230,0.92)" font-size="13" font-weight="500">Optimiser</text>
      <text x="16" y="68" fill="rgba(186,182,174,0.45)" font-size="10.5">Securitisation</text>
      <text x="16" y="82" fill="rgba(186,182,174,0.45)" font-size="10.5">analytics</text>
    </g>
  </g>


  <!-- ══════════════════════════════════════════════════════════ -->
  <!--  COMPOUNDING FLYWHEEL                                    -->
  <!-- ══════════════════════════════════════════════════════════ -->

  <g transform="translate(960, 370)">
    <text x="0" y="-188" text-anchor="middle" fill="rgba(107,141,173,0.3)" font-size="8.5" letter-spacing="3.5" font-weight="400">COMPOUNDING FLYWHEEL</text>

    <circle cx="0" cy="0" r="140" fill="none" stroke="rgba(107,141,173,0.025)" stroke-width="50"/>

    <path d="M 4,-112 A 112,112 0 0,1 112,-4" fill="none" stroke="url(#arc1)" stroke-width="2" stroke-linecap="round"/>
    <path d="M 112,4 A 112,112 0 0,1 4,112" fill="none" stroke="url(#arc2)" stroke-width="2" stroke-linecap="round"/>
    <path d="M -4,112 A 112,112 0 0,1 -112,4" fill="none" stroke="url(#arc3)" stroke-width="2" stroke-linecap="round"/>
    <path d="M -112,-4 A 112,112 0 0,1 -4,-112" fill="none" stroke="url(#arc4)" stroke-width="2" stroke-linecap="round"/>

    <circle cx="80" cy="-80" r="2.5" fill="rgba(107,141,173,0.5)"/>
    <circle cx="80" cy="80" r="2.5" fill="rgba(107,141,173,0.35)"/>
    <circle cx="-80" cy="80" r="2.5" fill="rgba(107,141,173,0.2)"/>
    <circle cx="-80" cy="-80" r="2.5" fill="rgba(107,141,173,0.12)"/>

    <circle cx="0" cy="0" r="36" fill="url(#hubGrad)"/>
    <circle cx="0" cy="0" r="36" fill="none" stroke="rgba(255,255,255,0.06)" stroke-width="0.5"/>
    <text x="0" y="-3" text-anchor="middle" fill="rgba(255,255,255,0.95)" font-size="9" font-weight="600" letter-spacing="2">VALUE</text>
    <text x="0" y="12" text-anchor="middle" fill="rgba(255,255,255,0.6)" font-size="9" font-weight="600" letter-spacing="2">LOOP</text>

    <text x="0" y="-146" text-anchor="middle" fill="rgba(240,237,230,0.7)" font-size="12" font-weight="500">More Transactions</text>
    <text x="158" y="5" text-anchor="middle" fill="rgba(240,237,230,0.7)" font-size="12" font-weight="500">Better AI</text>
    <text x="158" y="22" text-anchor="middle" fill="rgba(240,237,230,0.7)" font-size="12" font-weight="500">Predictions</text>
    <text x="0" y="156" text-anchor="middle" fill="rgba(240,237,230,0.7)" font-size="12" font-weight="500">Higher Automation</text>
    <text x="-155" y="5" text-anchor="middle" fill="rgba(240,237,230,0.7)" font-size="12" font-weight="500">Richer Data</text>
  </g>

  <line x1="720" y1="370" x2="812" y2="370" stroke="rgba(255,255,255,0.03)" stroke-width="0.5"/>


  <!-- Footer -->
  <line x1="80" y1="690" x2="1120" y2="690" stroke="rgba(255,255,255,0.04)" stroke-width="0.5"/>
  <text x="80" y="714" fill="rgba(186,182,174,0.25)" font-size="10">Each new country strengthens cross-market patterns rather than creating isolated silos. 6-month head start vs. competitors implementing vanilla HighRadius.</text>

</svg>
